<svg width="20" height="20" viewBox="0 0 20 20" fill="none" xmlns="http://www.w3.org/2000/svg">
<path fill-rule="evenodd" clip-rule="evenodd" d="M1.8499 10.0004C1.8499 5.49927 5.49878 1.85039 9.9999 1.85039C10.8908 1.85039 11.7467 1.99303 12.547 2.25607C12.993 2.40265 13.4733 2.15995 13.6199 1.71398C13.7665 1.26801 13.5238 0.787649 13.0778 0.641066C12.1084 0.322422 11.0734 0.150391 9.9999 0.150391C4.5599 0.150391 0.149902 4.56039 0.149902 10.0004C0.149902 15.4404 4.5599 19.8504 9.9999 19.8504C15.4399 19.8504 19.8499 15.4404 19.8499 10.0004C19.8499 9.53095 19.4693 9.15039 18.9999 9.15039C18.5305 9.15039 18.1499 9.53095 18.1499 10.0004C18.1499 14.5015 14.501 18.1504 9.9999 18.1504C5.49878 18.1504 1.8499 14.5015 1.8499 10.0004ZM17.6022 5.60013C17.9335 5.26746 17.9323 4.72927 17.5996 4.39805C17.267 4.06682 16.7288 4.06799 16.3976 4.40065L10.0495 10.7763L7.62083 8.17844C7.30024 7.83551 6.76236 7.8174 6.41943 8.13799C6.0765 8.45858 6.05839 8.99646 6.37898 9.33939L9.40928 12.5809C9.56684 12.7494 9.78614 12.8467 10.0168 12.8503C10.2475 12.8539 10.4698 12.7636 10.6325 12.6001L17.6022 5.60013Z" fill="#20BE72"/>
</svg>
