<svg width="18" height="19" viewBox="0 0 18 19" fill="none" xmlns="http://www.w3.org/2000/svg">
<path fill-rule="evenodd" clip-rule="evenodd" d="M5.89269 3.2906C5.95935 2.82517 6.10158 2.56847 6.30307 2.39576C6.63839 2.10835 7.36285 1.85039 8.9999 1.85039C10.637 1.85039 11.3614 2.10835 11.6967 2.39576C11.8985 2.56874 12.0409 2.82598 12.1074 3.2928C11.2012 3.18983 10.1685 3.15039 8.9999 3.15039C7.8299 3.15039 6.79765 3.18996 5.89269 3.2906ZM4.15879 3.60357C4.20273 2.67804 4.42661 1.76513 5.19673 1.10502C6.02808 0.392434 7.30362 0.150391 8.9999 0.150391C10.6962 0.150391 11.9717 0.392434 12.8031 1.10502C13.5762 1.76769 13.7988 2.68512 13.8415 3.61434C14.7271 3.86132 15.4775 4.23459 16.0803 4.79809C17.2613 5.90197 17.6877 7.55983 17.8091 9.73933C17.8356 9.82158 17.8499 9.90931 17.8499 10.0004C17.8499 10.1581 17.8468 10.3172 17.8386 10.477C17.8465 10.7797 17.8499 11.0914 17.8499 11.4122C17.8499 13.847 17.532 15.845 16.0662 17.1545C14.6392 18.4294 12.3373 18.8504 8.9999 18.8504C7.31509 18.8504 5.91591 18.7683 4.77115 18.54C3.62212 18.3109 2.67013 17.923 1.93458 17.268C0.455156 15.9503 0.149902 13.8226 0.149902 11.0004C0.149902 10.7802 0.15176 10.5643 0.155889 10.3526C0.151642 10.2346 0.149902 10.1171 0.149902 10.0004C0.149902 9.93347 0.157635 9.86836 0.172255 9.8059C0.264444 7.57253 0.67174 5.85754 1.93458 4.73283C2.53519 4.19791 3.28011 3.84121 4.15879 3.60357ZM1.8569 10.3414C1.91084 7.91962 2.27958 6.70204 3.06523 6.00233C3.49635 5.61836 4.12768 5.32257 5.10366 5.12792C6.08389 4.93241 7.35139 4.85039 8.9999 4.85039C10.6492 4.85039 11.9141 4.93255 12.8913 5.13337C13.8622 5.33289 14.4891 5.63775 14.9195 6.04001C15.6916 6.76175 16.0645 8.01557 16.1367 10.4594C16.1136 10.8257 16.0585 11.1217 15.9612 11.3699C15.8369 11.6871 15.6281 11.9662 15.2261 12.2156C14.3433 12.7634 12.5691 13.1504 9.00595 13.1504C5.44313 13.1504 3.66513 12.7635 2.77886 12.2151C2.37493 11.9651 2.16491 11.6855 2.03987 11.3683C1.93186 11.0944 1.87542 10.7621 1.8569 10.3414ZM15.9825 13.7434C15.8013 14.7427 15.4646 15.4123 14.9336 15.8867C14.0273 16.6964 12.3292 17.1504 8.9999 17.1504C7.35139 17.1504 6.08389 17.0684 5.10366 16.8729C4.12768 16.6782 3.49635 16.3824 3.06523 15.9985C2.5476 15.5374 2.21095 14.8516 2.02607 13.7448C3.37561 14.512 5.5683 14.8504 9.00595 14.8504C12.4446 14.8504 14.6356 14.5118 15.9825 13.7434ZM6.1499 11.0004C6.1499 10.5309 6.53046 10.1504 6.9999 10.1504H10.9999C11.4693 10.1504 11.8499 10.5309 11.8499 11.0004C11.8499 11.4698 11.4693 11.8504 10.9999 11.8504L6.9999 11.8504C6.53046 11.8504 6.1499 11.4698 6.1499 11.0004Z" fill="#347AE2"/>
</svg>
